# xmcd
#
# Track frame offsets: 
#        150
#        17775
#        38727
#        56036
#        75457
#        92020
#        106308
#        123446
#        147315
#
# Disc length: 2293 seconds
#
# Revision: 0
# Processed by: cddbd v1.5.2PL0 Copyright (c) Steve Scherf et al.
# Submitted via: ExactAudioCopyFreeDBPlugin 1.0
#
DISCID=6f08f309
DTITLE=Eileen Rose - Be Many Gone
DYEAR=2013
DGENRE=Americana
TTITLE0=Queen of the Fake Smile
TTITLE1=Space You Needed
TTITLE2=She's Yours
TTITLE3=Prove Me Wrong
TTITLE4=Each Passing Hour
TTITLE5=Just Ain't So
TTITLE6=Wake Up Silly Girl
TTITLE7=Comfort Me
TTITLE8=There Will Be Many Gone
EXTD=
EXTT0=
EXTT1=
EXTT2=
EXTT3=
EXTT4=
EXTT5=
EXTT6=
EXTT7=
EXTT8=
PLAYORDER=
